# xmcd CD database file generated by OrangeCD 6.4
#
# Track frame offsets:
#	150
#	14018
#	35814
#	62996
#	75783
#	108620
#
# Disc length: 1704 seconds
#
# Revision: 0
# Processed by: cddbd v1.5.2PL0 Copyright (c) Steve Scherf et al.
# Submitted via: OrangeCD 6.4
#
DISCID=4a06a606
DTITLE=The Jamie Krueger Group - JKG - 6 Songs to Listen To
DYEAR=2007
DGENRE=
TTITLE0=Bigger Man
TTITLE1=Long Distance
TTITLE2=Tied Down
TTITLE3=Up To No Good
TTITLE4=Tear You Down
TTITLE5=Forgot My Name
EXTD=
EXTT0=
EXTT1=
EXTT2=
EXTT3=
EXTT4=
EXTT5=
PLAYORDER=
